<?xml version="1.0" encoding="UTF-8"?>
<svg version="1.1" xmlns="http://www.w3.org/2000/svg" width="216" height="216">
<path d="M0 0 C71.28 0 142.56 0 216 0 C216 71.28 216 142.56 216 216 C144.72 216 73.44 216 0 216 C0 144.72 0 73.44 0 0 Z " fill="#000001" transform="translate(0,0)"/>
<path d="M0 0 C15.51 0 31.02 0 47 0 C47 6.6 47 13.2 47 20 C42.38 20 37.76 20 33 20 C33 36.83 33 53.66 33 71 C37.62 71 42.24 71 47 71 C47 77.27 47 83.54 47 90 C31.49 90 15.98 90 0 90 C0 83.73 0 77.46 0 71 C4.62 71 9.24 71 14 71 C14 53.84 14 36.68 14 19 C9.38 19 4.76 19 0 19 C0 12.73 0 6.46 0 0 Z " fill="#F9F9F9" transform="translate(26,31)"/>
<path d="M0 0 C6.27 0 12.54 0 19 0 C19.09099275 7.46805509 19.16411015 14.93589835 19.20724869 22.40437603 C19.22797122 25.87371895 19.25600043 29.34265737 19.30175781 32.81176758 C19.35423186 36.81595352 19.37307151 40.8197262 19.390625 44.82421875 C19.41127014 46.04767502 19.43191528 47.27113129 19.45318604 48.53166199 C19.45598536 59.46716364 17.86975803 70.22601112 9.92578125 78.2890625 C1.00830251 86.21169067 -6.99643962 90.39920812 -19.0859375 90.28515625 C-28.45070457 89.36876483 -35.93799161 83.81577161 -43 78 C-41.41332422 74.09714233 -38.86649519 71.66479018 -35.875 68.75 C-34.96492188 67.85796875 -34.05484375 66.9659375 -33.1171875 66.046875 C-32.41851562 65.37140625 -31.71984375 64.6959375 -31 64 C-28.45655832 65.20650438 -26.50515319 66.38238162 -24.25 68.125 C-20.34392677 70.37850379 -17.35622594 70.66694157 -13 70 C-7.43107162 68.48978213 -4.89678169 66.35153383 -2.04336548 61.55615234 C0.07773148 56.35965403 -0.27554427 50.84763813 -0.29296875 45.3125 C-0.27784744 44.01425293 -0.26272614 42.71600586 -0.24714661 41.37841797 C-0.2075155 37.95234368 -0.19712058 34.5268013 -0.19311523 31.1005249 C-0.18374194 27.59419848 -0.14630266 24.08817923 -0.11132812 20.58203125 C-0.0469761 13.7213552 -0.01615163 6.86095728 0 0 Z " fill="#F8F8F8" transform="translate(143,31)"/>
<path d="M0 0 C24.75 0 49.5 0 75 0 C75 6.27 75 12.54 75 19 C50.25 19 25.5 19 0 19 C0 12.73 0 6.46 0 0 Z " fill="#FDFDFD" transform="translate(26,172)"/>
</svg>
